[Header]
FileType HTR
DataType HTRS
FileVersion 1
NumSegments 64
NumFrames 3
DataFrameRate 24
EulerRotationOrder ZYX
CalibrationUnits mm
RotationUnits Degrees
GlobalAxisofGravity Y
BoneLengthAxis Y
ScaleFactor 1.0
[SegmentNames&Hierarchy]
Hips	GLOBAL
Spine	Hips
Spine1	Spine
Spine2	Spine1
Neck	Spine2
Head	Neck
LeftEye	Head
RightEye	Head
LeftShoulder	Spine2
LeftArm	LeftShoulder
LeftForeArm	LeftArm
LeftHand	LeftForeArm
LeftHandThumb1	LeftHand
LeftHandThumb2	LeftHandThumb1
LeftHandThumb3	LeftHandThumb2
LeftHandThumb4	LeftHandThumb3
LeftHandIndex1	LeftHand
LeftHandIndex2	LeftHandIndex1
LeftHandIndex3	LeftHandIndex2
LeftHandIndex4	LeftHandIndex3
LeftHandMiddle1	LeftHand
LeftHandMiddle2	LeftHandMiddle1
LeftHandMiddle3	LeftHandMiddle2
LeftHandMiddle4	LeftHandMiddle3
LeftHandRing1	LeftHand
LeftHandRing2	LeftHandRing1
LeftHandRing3	LeftHandRing2
LeftHandRing4	LeftHandRing3
LeftHandPinky1	LeftHand
LeftHandPinky2	LeftHandPinky1
LeftHandPinky3	LeftHandPinky2
LeftHandPinky4	LeftHandPinky3
RightShoulder	Spine2
RightArm	RightShoulder
RightForeArm	RightArm
RightHand	RightForeArm
RightHandPinky1	RightHand
RightHandPinky2	RightHandPinky1
RightHandPinky3	RightHandPinky2
RightHandPinky4	RightHandPinky3
RightHandRing1	RightHand
RightHandRing2	RightHandRing1
RightHandRing3	RightHandRing2
RightHandRing4	RightHandRing3
RightHandMiddle1	RightHand
RightHandMiddle2	RightHandMiddle1
RightHandMiddle3	RightHandMiddle2
RightHandMiddle4	RightHandMiddle3
RightHandIndex1	RightHand
RightHandIndex2	RightHandIndex1
RightHandIndex3	RightHandIndex2
RightHandIndex4	RightHandIndex3
RightHandThumb1	RightHand
RightHandThumb2	RightHandThumb1
RightHandThumb3	RightHandThumb2
RightHandThumb4	RightHandThumb3
LeftUpLeg	Hips
LeftLeg	LeftUpLeg
LeftFoot	LeftLeg
LeftToeBase	LeftFoot
RightUpLeg	Hips
RightLeg	RightUpLeg
RightFoot	RightLeg
RightToeBase	RightFoot
[BasePosition]
Hips	0	0	0	0	0	0	1
Spine	0	0	0	0	0	0	1
Spine1	0	0	0	0	0	0	1
Spine2	0	0	0	0	0	0	1
Neck	0	0	0	0	0	0	1
Head	0	0	0	0	0	0	1
LeftEye	0	0	0	0	0	0	1
RightEye	0	0	0	0	0	0	1
LeftShoulder	0	0	0	0	0	0	1
LeftArm	0	0	0	0	0	0	1
LeftForeArm	0	0	0	0	0	0	1
LeftHand	0	0	0	0	0	0	1
LeftHandThumb1	0	0	0	0	0	0	1
LeftHandThumb2	0	0	0	0	0	0	1
LeftHandThumb3	0	0	0	0	0	0	1
LeftHandThumb4	0	0	0	0	0	0	1
LeftHandIndex1	0	0	0	0	0	0	1
LeftHandIndex2	0	0	0	0	0	0	1
LeftHandIndex3	0	0	0	0	0	0	1
LeftHandIndex4	0	0	0	0	0	0	1
LeftHandMiddle1	0	0	0	0	0	0	1
LeftHandMiddle2	0	0	0	0	0	0	1
LeftHandMiddle3	0	0	0	0	0	0	1
LeftHandMiddle4	0	0	0	0	0	0	1
LeftHandRing1	0	0	0	0	0	0	1
LeftHandRing2	0	0	0	0	0	0	1
LeftHandRing3	0	0	0	0	0	0	1
LeftHandRing4	0	0	0	0	0	0	1
LeftHandPinky1	0	0	0	0	0	0	1
LeftHandPinky2	0	0	0	0	0	0	1
LeftHandPinky3	0	0	0	0	0	0	1
LeftHandPinky4	0	0	0	0	0	0	1
RightShoulder	0	0	0	0	0	0	1
RightArm	0	0	0	0	0	0	1
RightForeArm	0	0	0	0	0	0	1
RightHand	0	0	0	0	0	0	1
RightHandPinky1	0	0	0	0	0	0	1
RightHandPinky2	0	0	0	0	0	0	1
RightHandPinky3	0	0	0	0	0	0	1
RightHandPinky4	0	0	0	0	0	0	1
RightHandRing1	0	0	0	0	0	0	1
RightHandRing2	0	0	0	0	0	0	1
RightHandRing3	0	0	0	0	0	0	1
RightHandRing4	0	0	0	0	0	0	1
RightHandMiddle1	0	0	0	0	0	0	1
RightHandMiddle2	0	0	0	0	0	0	1
RightHandMiddle3	0	0	0	0	0	0	1
RightHandMiddle4	0	0	0	0	0	0	1
RightHandIndex1	0	0	0	0	0	0	1
RightHandIndex2	0	0	0	0	0	0	1
RightHandIndex3	0	0	0	0	0	0	1
RightHandIndex4	0	0	0	0	0	0	1
RightHandThumb1	0	0	0	0	0	0	1
RightHandThumb2	0	0	0	0	0	0	1
RightHandThumb3	0	0	0	0	0	0	1
RightHandThumb4	0	0	0	0	0	0	1
LeftUpLeg	0	0	0	0	0	0	1
LeftLeg	0	0	0	0	0	0	1
LeftFoot	0	0	0	0	0	0	1
LeftToeBase	0	0	0	0	0	0	1
RightUpLeg	0	0	0	0	0	0	1
RightLeg	0	0	0	0	0	0	1
RightFoot	0	0	0	0	0	0	1
RightToeBase	0	0	0	0	0	0	1
[Hips]
15	-1002.555481	1011.024231	18.47596931	3.094043016	-64.81524658	5.508063793	1.0
16	-1070.681396	999.1165771	21.04733276	0.9420135021	-63.43421555	8.102419853	1.0
17	-1144.251343	975.8317871	22.71579742	-1.884308815	-61.11029434	10.92676544	1.0
[Spine]
15	0	101.8159943	1.315000057	5.663128853	5.184689999	-1.221646309	1.0
16	0	101.8159943	1.315000057	5.413991451	3.576742172	-2.361319542	1.0
17	0	101.8159943	1.315000057	5.386057377	1.808730006	-3.358733654	1.0
[Spine1]
15	0	100.8349991	-10.00800037	4.045979977	4.326048851	-0.5172694325	1.0
16	0	100.8349991	-10.00800037	3.806593895	3.975786448	-0.7482181191	1.0
17	0	100.8349991	-10.00800037	3.671021223	3.430504799	-1.15701735	1.0
[Spine2]
15	0	91	-13.73399925	4.04263258	4.332619667	-0.4941773415	1.0
16	0	91	-13.73399925	3.820081711	3.961514473	-0.7321071029	1.0
17	0	91	-13.73399925	3.694173813	3.39979434	-1.153972387	1.0
[Neck]
15	0	166.7169952	-25.16200066	4.367351532	6.074351311	1.1499753	1.0
16	0	166.7169952	-25.16200066	3.960141897	6.137104988	1.387275696	1.0
17	0	166.7169952	-25.16200066	3.852476597	6.175036907	1.544348001	1.0
[Head]
15	0	96.17900085	16.84999847	-12.63907051	34.65120697	-12.7247963	1.0
16	0	96.17900085	16.84999847	-13.77507973	34.8478241	-13.36709404	1.0
17	0	96.17900085	16.84999847	-15.09066868	34.78754044	-14.18321419	1.0
[LeftEye]
15	30.6760006	64.09500122	92.83599854	0	0	0	1.0
16	30.6760006	64.09500122	92.83599854	0	0	0	1.0
17	30.6760006	64.09500122	92.83599854	0	0	0	1.0
[RightEye]
15	-30.6760006	64.09500122	92.83499908	0	0	0	1.0
16	-30.6760006	64.09500122	92.83499908	0	0	0	1.0
17	-30.6760006	64.09500122	92.83499908	0	0	0	1.0
[LeftShoulder]
15	45.70400238	109.4599991	-26.28000069	0.1355150938	-0.6452741623	-9.372378349	1.0
16	45.70400238	109.4599991	-26.28000069	0.05863361433	-1.858012915	-9.232313156	1.0
17	45.70400238	109.4599991	-26.28000069	0.06223921478	-3.413305283	-9.440464973	1.0
[LeftArm]
15	105.923996	-5.24600029	-22.32099915	17.73760986	-10.39509583	-65.62039948	1.0
16	105.923996	-5.24600029	-22.32099915	17.27260399	-11.64360905	-64.5721817	1.0
17	105.923996	-5.24600029	-22.32099915	16.22587013	-12.76933765	-63.26586914	1.0
[LeftForeArm]
15	278.414978	-0.0009999999311	0	-1.072188297e-06	-17.77218628	-0.0002089520131	1.0
16	278.414978	-0.0009999999311	0	2.32807929e-06	-20.8706398	-0.0002032542398	1.0
17	278.414978	-0.0009999999311	0	-2.904178245e-06	-23.45987892	-0.0002115133248	1.0
[LeftHand]
15	283.2879944	0	0	5.951273441	-8.551040649	-3.939424992	1.0
16	283.2879944	0	0	6.63893652	-8.937773705	-3.86022377	1.0
17	283.2879944	0	0	6.261584759	-9.401018143	-3.231776714	1.0
[LeftHandThumb1]
15	24.6609993	-15.75	26.8239994	30.58115005	-20.32058144	11.29641056	1.0
16	24.6609993	-15.75	26.8239994	30.58115005	-20.32058144	11.29641056	1.0
17	24.6609993	-15.75	26.8239994	30.58115005	-20.32058144	11.29641056	1.0
[LeftHandThumb2]
15	32.29800034	-18.64699936	18.64699936	11.40987396	20.33227921	-2.31610322	1.0
16	32.29800034	-18.64699936	18.64699936	12.98015785	19.67729187	-3.016518354	1.0
17	32.29800034	-18.64699936	18.64699936	13.952775	19.19605446	-3.580068588	1.0
[LeftHandThumb3]
15	26.52600098	-15.31499958	15.31499958	-15.13593197	8.047927856	10.02870941	1.0
16	26.52600098	-15.31499958	15.31499958	-15.20223331	7.892181396	10.07581043	1.0
17	26.52600098	-15.31499958	15.31499958	-15.25631809	7.76510334	10.11435604	1.0
[LeftHandThumb4]
15	19.54599953	-11.28499985	11.28499985	0	0	0	1.0
16	19.54599953	-11.28499985	11.28499985	0	0	0	1.0
17	19.54599953	-11.28499985	11.28499985	0	0	0	1.0
[LeftHandIndex1]
15	91.09299469	-5.170999527	22.60099792	-1.469507456	-6.064273357	-25.86369514	1.0
16	91.09299469	-5.170999527	22.60099792	-1.717240572	-5.817325592	-28.8806324	1.0
17	91.09299469	-5.170999527	22.60099792	-1.910709262	-5.559336185	-31.12674141	1.0
[LeftHandIndex2]
15	36.76399994	0	0	-0.7194402218	2.808041811	-28.73587227	1.0
16	36.76399994	0	0	-0.7165719867	2.802820683	-28.67739868	1.0
17	36.76399994	0	0	-0.7121329904	2.794703007	-28.58641243	1.0
[LeftHandIndex3]
15	28.83100128	0	0	-0.2968615294	1.838745952	-18.3410778	1.0
16	28.83100128	0	0	-0.2949670851	1.833038926	-18.28207207	1.0
17	28.83100128	0	0	-0.2920339406	1.82415247	-18.19025803	1.0
[LeftHandIndex4]
15	23.92700005	0	0	0	0	0	1.0
16	23.92700005	0	0	0	0	0	1.0
17	23.92700005	0	0	0	0	0	1.0
[LeftHandMiddle1]
15	95.33399963	0	0	-2.651211739	1.947627187	-38.2161026	1.0
16	95.33399963	0	0	-2.759963274	2.119634628	-39.34375	1.0
17	95.33399963	0	0	-2.813587904	2.3013556	-39.88970184	1.0
[LeftHandMiddle2]
15	36.98199844	0	0	-0.5527376533	2.48020339	-25.12324142	1.0
16	36.98199844	0	0	-0.5584184527	2.492344379	-25.25474548	1.0
17	36.98199844	0	0	-0.562318027	2.500526905	-25.34397888	1.0
[LeftHandMiddle3]
15	29.50900078	0	0	-0.3854681849	2.086927414	-20.92725372	1.0
16	29.50900078	0	0	-0.3903153241	2.09958005	-21.06024933	1.0
17	29.50900078	0	0	-0.3936321139	2.108191729	-21.15056419	1.0
[LeftHandMiddle4]
15	28.3390007	0	0	0	0	0	1.0
16	28.3390007	0	0	0	0	0	1.0
17	28.3390007	0	0	0	0	0	1.0
[LeftHandRing1]
15	91.04499817	-0.4390000105	-18.65100098	-2.327950478	3.116940975	-34.73957062	1.0
16	91.04499817	-0.4390000105	-18.65100098	-2.454050541	2.742950916	-36.11211777	1.0
17	91.04499817	-0.4390000105	-18.65100098	-2.550189972	2.373158932	-37.14529037	1.0
[LeftHandRing2]
15	31.54000092	0	0	-0.8822549582	3.086054325	-31.90159607	1.0
16	31.54000092	0	0	-0.8742152452	3.073138714	-31.75221443	1.0
17	31.54000092	0	0	-0.8643400669	3.057161331	-31.56741142	1.0
[LeftHandRing3]
15	29.37700081	0	0	-0.9803242087	3.238070726	-33.67951202	1.0
16	29.37700081	0	0	-0.971735239	3.225166321	-33.52723694	1.0
17	29.37700081	0	0	-0.9611614347	3.209200621	-33.33877182	1.0
[LeftHandRing4]
15	26.47500038	0	0	0	0	0	1.0
16	26.47500038	0	0	0	0	0	1.0
17	26.47500038	0	0	0	0	0	1.0
[LeftHandPinky1]
15	80.77799988	-4.887000084	-38.06099701	-1.985440493	2.194550753	-30.80371475	1.0
16	80.77799988	-4.887000084	-38.06099701	-2.035078049	1.156556487	-31.4098053	1.0
17	80.77799988	-4.887000084	-38.06099701	-2.03995347	0.7587175965	-31.48626328	1.0
[LeftHandPinky2]
15	36	0	0	-0.4736068845	2.304083586	-23.22771454	1.0
16	36	0	0	-0.4818340242	2.323173523	-23.43172646	1.0
17	36	0	0	-0.4945606291	2.352315903	-23.74385262	1.0
[LeftHandPinky3]
15	21.14200211	0	0	-0.541975081	2.457138062	-24.87336731	1.0
16	21.14200211	0	0	-0.5513669252	2.477309704	-25.09179306	1.0
17	21.14200211	0	0	-0.5628316998	2.501616716	-25.3556385	1.0
[LeftHandPinky4]
15	19.75699997	0	0	0	0	0	1.0
16	19.75699997	0	0	0	0	0	1.0
17	19.75699997	0	0	0	0	0	1.0
[RightShoulder]
15	-45.70000076	109.4620056	-26.28000069	2.186906576	6.274812698	9.960886002	1.0
16	-45.70000076	109.4620056	-26.28000069	2.288212776	5.478648663	9.978857994	1.0
17	-45.70000076	109.4620056	-26.28000069	2.369298935	4.636675358	9.886868477	1.0
[RightArm]
15	-105.9280014	-5.248000145	-22.32099915	29.15932846	12.69678879	55.17906189	1.0
16	-105.9280014	-5.248000145	-22.32099915	27.72059059	7.406462669	55.07742691	1.0
17	-105.9280014	-5.248000145	-22.32099915	26.11680412	3.986799002	56.669384	1.0
[RightForeArm]
15	-278.414978	0	0	2.993704129e-06	20.81118011	5.22595883e-06	1.0
16	-278.414978	0	0	2.680950956e-06	23.56712341	1.826796142e-05	1.0
17	-278.414978	0	0	-2.835602345e-06	22.94291687	4.155627266e-06	1.0
[RightHand]
15	-283.2879944	0	0.0009999999311	-2.770114899	3.390142202	-3.150720596	1.0
16	-283.2879944	0	0.0009999999311	-3.761630058	3.269506454	-2.842911482	1.0
17	-283.2879944	0	0.0009999999311	-2.687556982	3.262076378	-2.406018496	1.0
[RightHandPinky1]
15	-80.76699829	-4.885000229	-38.06000137	-2.156243086	-4.045811176	35.60120392	1.0
16	-80.76699829	-4.885000229	-38.06000137	-2.16731286	-3.947658539	35.74209213	1.0
17	-80.76699829	-4.885000229	-38.06000137	-2.204053879	-3.776670933	36.20185471	1.0
[RightHandPinky2]
15	-36	0	0.0009999999311	-0.4036356211	-1.892518282	24.09664917	1.0
16	-36	0	0.0009999999311	-0.3989228904	-1.881942391	23.95356369	1.0
17	-36	0	0.0009999999311	-0.3925787508	-1.867591023	23.7596302	1.0
[RightHandPinky3]
15	-21.14200211	0	0	-0.1785876006	-1.274857283	15.94784164	1.0
16	-21.14200211	0	0	-0.1752936691	-1.263288856	15.79926014	1.0
17	-21.14200211	0	0	-0.1708846688	-1.247601986	15.59797382	1.0
[RightHandPinky4]
15	-19.75699997	0	0	0	0	0	1.0
16	-19.75699997	0	0	0	0	0	1.0
17	-19.75699997	0	0	0	0	0	1.0
[RightHandRing1]
15	-91.03599548	-0.4390000105	-18.65100098	-1.871254683	-6.472262859	32.02392578	1.0
16	-91.03599548	-0.4390000105	-18.65100098	-1.894913435	-6.570170403	32.33214188	1.0
17	-91.03599548	-0.4390000105	-18.65100098	-1.965415478	-6.717285633	33.24269485	1.0
[RightHandRing2]
15	-31.54000092	0	0	-0.3790524602	-1.836552858	23.32154083	1.0
16	-31.54000092	0	0	-0.3764399588	-1.830479622	23.23984528	1.0
17	-31.54000092	0	0	-0.3733575046	-1.823292375	23.14321136	1.0
[RightHandRing3]
15	-29.37700081	0	0	-0.2732868195	-1.568753004	19.76310349	1.0
16	-29.37700081	0	0	-0.271017462	-1.562423587	19.6800251	1.0
17	-29.37700081	0	0	-0.2683434784	-1.554925084	19.58171463	1.0
[RightHandRing4]
15	-26.47500038	0	0	0	0	0	1.0
16	-26.47500038	0	0	0	0	0	1.0
17	-26.47500038	0	0	0	0	0	1.0
[RightHandMiddle1]
15	-95.32500458	0	0	-1.759234905	-2.464935303	30.55412865	1.0
16	-95.32500458	0	0	-1.77543819	-2.79024291	30.76152802	1.0
17	-95.32500458	0	0	-1.835169315	-3.241159678	31.539814	1.0
[RightHandMiddle2]
15	-36.98199844	0	0	-0.2394988537	-1.471360683	18.48947525	1.0
16	-36.98199844	0	0	-0.2399928719	-1.472838759	18.50873947	1.0
17	-36.98199844	0	0	-0.2407830805	-1.47518611	18.53930664	1.0
[RightHandMiddle3]
15	-29.50900078	0	0	-0.08579665422	-0.8902053833	11.03496742	1.0
16	-29.50900078	0	0	-0.0860979408	-0.8917443156	11.05432701	1.0
17	-29.50900078	0	0	-0.08657515049	-0.8941722512	11.08488369	1.0
[RightHandMiddle4]
15	-28.3390007	0	0.0009999999311	0	0	0	1.0
16	-28.3390007	0	0.0009999999311	0	0	0	1.0
17	-28.3390007	0	0.0009999999311	0	0	0	1.0
[RightHandIndex1]
15	-91.08300018	-5.167999744	22.60099792	-1.280470967	2.159514904	24.13311386	1.0
16	-91.08300018	-5.167999744	22.60099792	-1.30832684	1.849202752	24.61650658	1.0
17	-91.08300018	-5.167999744	22.60099792	-1.333017826	1.011544585	26.00965118	1.0
[RightHandIndex2]
15	-36.76399994	0	0	-0.1020539999	-0.9677948952	12.03845406	1.0
16	-36.76399994	0	0	-0.1024255902	-0.9695392847	12.06047344	1.0
17	-36.76399994	0	0	-0.1027035117	-0.9708625674	12.07723808	1.0
[RightHandIndex3]
15	-28.83100128	0	0	-0.1061810255	-0.9869625568	12.28061485	1.0
16	-28.83100128	0	0	-0.1065633371	-0.9887157679	12.30276585	1.0
17	-28.83100128	0	0	-0.106855616	-0.9900513291	12.31964111	1.0
[RightHandIndex4]
15	-23.92700005	0	0	0	0	0	1.0
16	-23.92700005	0	0	0	0	0	1.0
17	-23.92700005	0	0	0	0	0	1.0
[RightHandThumb1]
15	-24.64799881	-15.72700024	26.82600021	-0.1902875453	0.8218618631	0.3671384752	1.0
16	-24.64799881	-15.72700024	26.82600021	-0.1902875453	0.8218618631	0.3671384752	1.0
17	-24.64799881	-15.72700024	26.82600021	-0.1902875453	0.8218618631	0.3671384752	1.0
[RightHandThumb2]
15	-32.29800034	-18.64699936	18.64699936	15.04418945	-3.164000034	-19.34592056	1.0
16	-32.29800034	-18.64699936	18.64699936	16.2677536	-2.360458374	-18.72303963	1.0
17	-32.29800034	-18.64699936	18.64699936	17.35350227	-1.95435071	-17.98694611	1.0
[RightHandThumb3]
15	-26.52600098	-15.31399918	15.31399918	0.5521091223	6.268927574	-23.67764854	1.0
16	-26.52600098	-15.31399918	15.31399918	0.3276033998	6.807825089	-23.70849609	1.0
17	-26.52600098	-15.31399918	15.31399918	-0.1789256781	8.002579689	-23.90542603	1.0
[RightHandThumb4]
15	-19.54599953	-11.28499985	11.28499985	0	0	0	1.0
16	-19.54599953	-11.28499985	11.28499985	0	0	0	1.0
17	-19.54599953	-11.28499985	11.28499985	0	0	0	1.0
[LeftUpLeg]
15	82.07800293	-67.51699829	-15.99599934	-13.33124065	8.475660324	1.251368999	1.0
16	82.07800293	-67.51699829	-15.99599934	-9.321749687	9.292276382	2.571483135	1.0
17	82.07800293	-67.51699829	-15.99599934	-5.720565796	10.81534481	4.594387054	1.0
[LeftLeg]
15	0	-443.7049866	2.845999956	19.73259735	-8.657673836	-3.611522436	1.0
16	0	-443.7049866	2.845999956	19.38820839	-9.269598007	-3.84053874	1.0
17	0	-443.7049866	2.845999956	21.41510201	-9.119949341	-4.362904072	1.0
[LeftFoot]
15	0	-444.2789917	-29.8219986	-14.2053051	-6.008699417	-0.5741795897	1.0
16	0	-444.2789917	-29.8219986	-17.94598389	-7.851169586	-1.525300264	1.0
17	0	-444.2789917	-29.8219986	-22.95524406	-12.18488598	-2.065252542	1.0
[LeftToeBase]
15	0	-87.28699493	107.1060028	-5.353975773	-1.765040361e-05	5.004066566e-07	1.0
16	0	-87.28699493	107.1060028	-5.391143322	-5.503973625e-06	-5.319910201e-08	1.0
17	0	-87.28699493	107.1060028	-5.79868269	1.501510997e-05	-2.331603355e-06	1.0
[RightUpLeg]
15	-82.07800293	-67.51699829	-15.99599934	-36.15097046	-13.15006161	-5.142424107	1.0
16	-82.07800293	-67.51699829	-15.99599934	-35.91091156	-13.23067379	-9.530392647	1.0
17	-82.07800293	-67.51699829	-15.99599934	-40.64926529	-15.60192966	-13.23012924	1.0
[RightLeg]
15	0	-443.7049866	2.861999989	25.75244141	1.313950539	0.5898151398	1.0
16	0	-443.7049866	2.861999989	9.2654562	1.310330033	0.1755706519	1.0
17	0	-443.7049866	2.861999989	8.632079124	-1.146889925	-0.1156343892	1.0
[RightFoot]
15	0	-444.2770081	-29.83799934	-4.566832542	-0.228535831	6.02589798	1.0
16	0	-444.2770081	-29.83799934	-5.658603191	-0.07422765344	9.726531029	1.0
17	0	-444.2770081	-29.83799934	-11.7559185	0.8423751593	7.384786129	1.0
[RightToeBase]
15	0	-87.28699493	107.1060028	-5.463027954	4.252644794e-05	2.87314856e-06	1.0
16	0	-87.28699493	107.1060028	-4.141648769	5.454524944e-05	9.521329957e-06	1.0
17	0	-87.28699493	107.1060028	-7.639722824	3.145826213e-06	1.204044747e-05	1.0
[EndOfFile]
